<?xml version="1.0" encoding="utf-8"?>
<!-- Uploaded to: SVG Repo, www.svgrepo.com, Generator: SVG Repo Mixer Tools -->
<svg width="800px" height="800px" viewBox="-5.54 0 70.48 70.48" xmlns="http://www.w3.org/2000/svg">
  <g id="Group_65" data-name="Group 65" transform="translate(-500.665 -204.52)">
    <g id="Group_62" data-name="Group 62">
      <path id="Path_168" data-name="Path 168" d="M552.786,263.49a4.214,4.214,0,0,1-4.213,4.213h-43.7a4.212,4.212,0,0,1-4.211-4.213V208.732a4.211,4.211,0,0,1,4.211-4.212h27.91l2.031,13.755a4.213,4.213,0,0,1,4.213,4.213l13.756,2.01Z" fill="#dce2e9"/>
      <g id="Group_61" data-name="Group 61">
        <path id="Path_169" data-name="Path 169" d="M532.786,218.111H510.665a2,2,0,0,1,0-4h22.121a2,2,0,0,1,0,4Z" fill="#8c93a1"/>
        <path id="Path_170" data-name="Path 170" d="M542.786,226.111H510.665a2,2,0,0,1,0-4h32.121a2,2,0,0,1,0,4Z" fill="#8c93a1"/>
        <path id="Path_171" data-name="Path 171" d="M542.786,234.111H510.665a2,2,0,0,1,0-4h32.121a2,2,0,0,1,0,4Z" fill="#8c93a1"/>
        <path id="Path_172" data-name="Path 172" d="M542.786,242.111H510.665a2,2,0,0,1,0-4h32.121a2,2,0,0,1,0,4Z" fill="#8c93a1"/>
        <path id="Path_173" data-name="Path 173" d="M522.786,250.111H510.665a2,2,0,0,1,0-4h12.121a2,2,0,0,1,0,4Z" fill="#8c93a1"/>
        <path id="Path_174" data-name="Path 174" d="M522.786,258.111H510.665a2,2,0,1,1,0-4h12.121a2,2,0,0,1,0,4Z" fill="#8c93a1"/>
      </g>
      <path id="Path_175" data-name="Path 175" d="M532.808,204.52h-.022v15.787A4.212,4.212,0,0,0,537,224.52h15.789V224.5Z" fill="#bfc8d5"/>
    </g>
    <g id="Group_64" data-name="Group 64">
      <g id="Group_63" data-name="Group 63">
        <path id="Path_176" data-name="Path 176" d="M558.374,263.359a46.414,46.414,0,0,0-5.064-4.435c2.422-2.879,3.958-5.867,1.259-7.674-4.441-2.969-18.543-6.244-21.558-3.227s.258,17.118,3.226,21.557c1.807,2.7,4.795,1.166,7.675-1.258a46.51,46.51,0,0,0,4.435,5.063c3.629,3.629,6.316.289,8.316-1.709v0C558.661,269.676,562,266.988,558.374,263.359Z" fill="#f7971d"/>
        <path id="Path_177" data-name="Path 177" d="M555.773,250.6a7.888,7.888,0,0,1,.2,3.449c-.126,1-1.673-.362-1.939-1.549S555.476,249.908,555.773,250.6Z" fill="#f7971d"/>
        <path id="Path_178" data-name="Path 178" d="M559.769,263.463a7.889,7.889,0,0,1,.2,3.449c-.126,1-1.673-.361-1.939-1.549S559.472,262.768,559.769,263.463Z" fill="#f7971d"/>
        <path id="Path_179" data-name="Path 179" d="M558.374,261.359a46.414,46.414,0,0,0-5.064-4.435c2.422-2.879,3.958-5.867,1.259-7.674-4.441-2.969-18.543-6.244-21.558-3.227s.258,17.118,3.226,21.557c1.807,2.7,4.795,1.166,7.675-1.258a46.51,46.51,0,0,0,4.435,5.063c3.629,3.629,6.316.289,8.316-1.709v0C558.661,267.676,562,264.988,558.374,261.359Z" fill="#ffc52f"/>
      </g>
      <path id="Path_180" data-name="Path 180" d="M544.262,246.893c-4.279-.8-8.516-1.014-9.955.425-1.284,1.284-1.347,4.807-.679,8.571C534.939,263.277,552.189,248.379,544.262,246.893Z" fill="#ffc52f" opacity="0.5" style="mix-blend-mode: screen;isolation: isolate"/>
    </g>
  </g>
</svg>